<?xml version="1.0" standalone="no"?>
<!DOCTYPE svg PUBLIC "-//W3C//DTD SVG 20010904//EN"
 "http://www.w3.org/TR/2001/REC-SVG-20010904/DTD/svg10.dtd">
<svg version="1.0" xmlns="http://www.w3.org/2000/svg"
 width="1024.000000pt" height="1024.000000pt" viewBox="0 0 1024.000000 1024.000000"
 preserveAspectRatio="xMidYMid meet">
<metadata>
Created by potrace 1.14, written by Peter Selinger 2001-2017
</metadata>
<g transform="translate(0.000000,1024.000000) scale(0.100000,-0.100000)"
fill="#000000" stroke="none">
<path d="M1595 10230 c-27 -5 -75 -11 -105 -15 -30 -4 -63 -11 -72 -16 -9 -5
-26 -9 -37 -9 -40 0 -260 -79 -372 -134 -111 -54 -243 -136 -330 -206 -58 -45
-235 -222 -286 -285 -166 -205 -312 -518 -357 -766 -9 -46 -19 -97 -23 -114
-11 -44 -13 -6996 -2 -7080 16 -128 19 -144 38 -226 12 -54 60 -209 69 -224 4
-5 7 -15 8 -21 1 -6 25 -59 54 -119 129 -267 346 -520 598 -698 28 -20 54 -37
57 -37 2 0 20 -11 40 -25 133 -90 464 -212 624 -230 20 -3 47 -8 61 -12 38
-12 7013 -14 7085 -2 33 5 74 11 90 14 403 59 831 305 1091 628 33 39 61 74
64 77 3 3 33 48 66 100 109 170 202 391 240 567 44 208 43 97 42 3728 0 2011
-3 3479 -9 3520 -28 215 -82 401 -171 583 -254 522 -739 885 -1317 987 l-136
24 -3480 -1 c-1914 0 -3502 -4 -3530 -8z"/>
</g>
</svg>
